<svg width="17" height="16" viewBox="0 0 17 16" fill="none" xmlns="http://www.w3.org/2000/svg">
<path d="M8.516 0C13.06 0 16.5 3.72559 16.5 7.98798C16.5 12.9314 12.468 16 8.5 16C7.188 16 5.732 15.6475 4.564 14.9584C4.156 14.7101 3.812 14.5258 3.372 14.67L1.756 15.1507C1.348 15.2789 0.98 14.9584 1.1 14.5258L1.636 12.7311C1.724 12.4827 1.708 12.2183 1.58 12.01C0.892 10.7441 0.5 9.35804 0.5 8.01202C0.5 3.7977 3.868 0 8.516 0ZM12.172 6.99449C11.604 6.99449 11.148 7.45118 11.148 8.02003C11.148 8.58087 11.604 9.04557 12.172 9.04557C12.74 9.04557 13.196 8.58087 13.196 8.02003C13.196 7.45118 12.74 6.99449 12.172 6.99449ZM8.484 6.99449C7.924 6.98648 7.46 7.45118 7.46 8.01202C7.46 8.58087 7.916 9.03756 8.484 9.04557C9.052 9.04557 9.508 8.58087 9.508 8.02003C9.508 7.45118 9.052 6.99449 8.484 6.99449ZM4.796 6.99449C4.228 6.99449 3.772 7.45118 3.772 8.02003C3.772 8.58087 4.236 9.04557 4.796 9.04557C5.364 9.03756 5.82 8.58087 5.82 8.02003C5.82 7.45118 5.364 6.99449 4.796 6.99449Z" fill="black"/>
</svg>
