<svg width="24" height="24" viewBox="0 0 24 24" fill="none" xmlns="http://www.w3.org/2000/svg">
<path fill-rule="evenodd" clip-rule="evenodd" d="M10.8801 19.8308L9.2411 18.1878C9.0951 18.0408 8.9021 17.9668 8.7101 17.9668C8.5191 17.9668 8.3271 18.0408 8.1811 18.1858C7.8871 18.4788 7.8871 18.9538 8.1791 19.2468L11.0991 22.1748C11.3801 22.4578 11.8801 22.4578 12.1611 22.1748L15.0811 19.2468C15.3731 18.9538 15.3731 18.4788 15.0791 18.1858C14.7851 17.8938 14.3111 17.8938 14.0191 18.1878L12.3801 19.8308V16.8428C11.8701 16.8528 11.3701 16.8528 10.8801 16.8428V19.8308Z" fill="white"/>
<path fill-rule="evenodd" clip-rule="evenodd" d="M7.35 16.713C8.47 16.793 9.6501 16.8328 10.8801 16.8428L10.88 9.603C10.88 9.193 11.22 8.853 11.63 8.853C12.04 8.853 12.38 9.193 12.38 9.603L12.3801 16.8428C13.5901 16.8328 14.85 16.783 16.15 16.713H16.17C20.2 16.343 21.5 14.513 21.5 9.213C21.5 1.613 18.65 1.613 11.75 1.613C4.85 1.613 2 1.613 2 9.213C2 14.513 3.3 16.343 7.35 16.713Z" fill="white"/>
</svg>
