<svg width="21" height="21" viewBox="0 0 21 21" fill="none" xmlns="http://www.w3.org/2000/svg">
<path d="M1.05011 1.25L3.13011 1.61L4.09311 13.083C4.17011 14.02 4.95311 14.739 5.89311 14.736H16.8021C17.6991 14.738 18.4601 14.078 18.5871 13.19L19.5361 6.632C19.6421 5.899 19.1331 5.219 18.4011 5.113C18.3371 5.104 3.46411 5.099 3.46411 5.099" stroke="#F1F1F1" stroke-width="1.5" stroke-linecap="round" stroke-linejoin="round"/>
<path d="M12.4251 8.79492H15.1981" stroke="#F1F1F1" stroke-width="1.5" stroke-linecap="round" stroke-linejoin="round"/>
<path fill-rule="evenodd" clip-rule="evenodd" d="M5.4544 18.2026C5.7554 18.2026 5.9984 18.4466 5.9984 18.7466C5.9984 19.0476 5.7554 19.2916 5.4544 19.2916C5.1534 19.2916 4.9104 19.0476 4.9104 18.7466C4.9104 18.4466 5.1534 18.2026 5.4544 18.2026Z" fill="#F1F1F1" stroke="#F1F1F1" stroke-width="1.5" stroke-linecap="round" stroke-linejoin="round"/>
<path fill-rule="evenodd" clip-rule="evenodd" d="M16.7347 18.2026C17.0357 18.2026 17.2797 18.4466 17.2797 18.7466C17.2797 19.0476 17.0357 19.2916 16.7347 19.2916C16.4337 19.2916 16.1907 19.0476 16.1907 18.7466C16.1907 18.4466 16.4337 18.2026 16.7347 18.2026Z" fill="#F1F1F1" stroke="#F1F1F1" stroke-width="1.5" stroke-linecap="round" stroke-linejoin="round"/>
</svg>
