<svg width="25" height="24" viewBox="0 0 25 24" fill="none" xmlns="http://www.w3.org/2000/svg">
<path fill-rule="evenodd" clip-rule="evenodd" d="M3.10001 6.5C3.10001 3.87479 3.12812 3 6.60001 3C10.0719 3 10.1 3.87479 10.1 6.5C10.1 9.12521 10.1111 10 6.60001 10C3.08893 10 3.10001 9.12521 3.10001 6.5Z" stroke="#F1F1F1" stroke-width="1.5" stroke-linecap="round" stroke-linejoin="round"/>
<path fill-rule="evenodd" clip-rule="evenodd" d="M14.1 6.5C14.1 3.87479 14.1281 3 17.6 3C21.0719 3 21.1 3.87479 21.1 6.5C21.1 9.12521 21.1111 10 17.6 10C14.0889 10 14.1 9.12521 14.1 6.5Z" stroke="#F1F1F1" stroke-width="1.5" stroke-linecap="round" stroke-linejoin="round"/>
<path fill-rule="evenodd" clip-rule="evenodd" d="M3.10001 17.5C3.10001 14.8748 3.12812 14 6.60001 14C10.0719 14 10.1 14.8748 10.1 17.5C10.1 20.1252 10.1111 21 6.60001 21C3.08893 21 3.10001 20.1252 3.10001 17.5Z" stroke="#F1F1F1" stroke-width="1.5" stroke-linecap="round" stroke-linejoin="round"/>
<path fill-rule="evenodd" clip-rule="evenodd" d="M14.1 17.5C14.1 14.8748 14.1281 14 17.6 14C21.0719 14 21.1 14.8748 21.1 17.5C21.1 20.1252 21.1111 21 17.6 21C14.0889 21 14.1 20.1252 14.1 17.5Z" stroke="#F1F1F1" stroke-width="1.5" stroke-linecap="round" stroke-linejoin="round"/>
</svg>
